<svg xmlns="http://www.w3.org/2000/svg" width="512" height="512" viewBox="0 0 310.42 310.42"><g xmlns="http://www.w3.org/2000/svg" fill="#999"><path d="M214.965 36.833c-49.111-49.11-129.021-49.11-178.132 0-49.111 49.11-49.111 129.02 0 178.13 41.664 41.664 103.629 47.974 152.017 18.947 0 0 3.498-2.085 6.312.73 16.064 16.066 64.263 64.264 64.263 64.264 12.79 12.79 30.675 15.836 42.02 4.493l1.95-1.953c11.346-11.343 8.302-29.23-4.49-42.02l-64.127-64.127c-2.951-2.951-.866-6.448-.866-6.448 29.026-48.387 22.717-110.352-18.947-152.016zM191.71 191.709c-36.288 36.288-95.332 36.287-131.62-.001-36.287-36.288-36.288-95.332 0-131.62 36.287-36.287 95.332-36.287 131.62 0 36.286 36.289 36.286 95.332 0 131.62z" data-original="#000000"/><path d="M118.424 183.67c0 1.689-.332 3.406-1.031 5.06-2.798 6.612-10.426 9.705-17.038 6.907-41.56-17.586-61.062-65.703-43.476-107.261 2.798-6.611 10.426-9.704 17.038-6.906 6.612 2.799 9.703 10.425 6.906 17.039-11.998 28.354 1.309 61.186 29.663 73.183 4.959 2.099 7.938 6.913 7.938 11.978z" data-original="#000000"/></g></svg>